<mxfile host="app.diagrams.net" modified="2024-03-28T08:56:10.083Z" agent="Mozilla/5.0 (Windows NT 10.0; Win64; x64) AppleWebKit/537.36 (KHTML, like Gecko) Chrome/123.0.0.0 Safari/537.36" etag="zsndQ2q4UEtK1pRI3iTW" version="24.2.0" type="github">
  <diagram id="C5RBs43oDa-KdzZeNtuy" name="Page-1">
    <mxGraphModel dx="1105" dy="586" grid="1" gridSize="10" guides="1" tooltips="1" connect="1" arrows="1" fold="1" page="1" pageScale="1" pageWidth="827" pageHeight="1169" math="0" shadow="0">
      <root>
        <mxCell id="WIyWlLk6GJQsqaUBKTNV-0" />
        <mxCell id="WIyWlLk6GJQsqaUBKTNV-1" parent="WIyWlLk6GJQsqaUBKTNV-0" />
        <mxCell id="55BJasFtDEPykcvWfGNE-2" value="" style="edgeStyle=orthogonalEdgeStyle;rounded=0;orthogonalLoop=1;jettySize=auto;html=1;" edge="1" parent="WIyWlLk6GJQsqaUBKTNV-1" source="55BJasFtDEPykcvWfGNE-0" target="55BJasFtDEPykcvWfGNE-1">
          <mxGeometry relative="1" as="geometry" />
        </mxCell>
        <mxCell id="55BJasFtDEPykcvWfGNE-0" value="START" style="strokeWidth=2;html=1;shape=mxgraph.flowchart.start_1;whiteSpace=wrap;" vertex="1" parent="WIyWlLk6GJQsqaUBKTNV-1">
          <mxGeometry x="124.88999999999999" y="90" width="100" height="60" as="geometry" />
        </mxCell>
        <mxCell id="55BJasFtDEPykcvWfGNE-30" value="" style="edgeStyle=orthogonalEdgeStyle;rounded=0;orthogonalLoop=1;jettySize=auto;html=1;" edge="1" parent="WIyWlLk6GJQsqaUBKTNV-1" source="55BJasFtDEPykcvWfGNE-1" target="55BJasFtDEPykcvWfGNE-29">
          <mxGeometry relative="1" as="geometry" />
        </mxCell>
        <mxCell id="55BJasFtDEPykcvWfGNE-1" value="initialize the global value" style="whiteSpace=wrap;html=1;strokeWidth=2;" vertex="1" parent="WIyWlLk6GJQsqaUBKTNV-1">
          <mxGeometry x="92.39" y="170" width="165" height="50" as="geometry" />
        </mxCell>
        <mxCell id="55BJasFtDEPykcvWfGNE-26" value="65070502204 Chutipon Likitparinya" style="text;html=1;align=center;verticalAlign=middle;resizable=0;points=[];autosize=1;strokeColor=none;fillColor=none;" vertex="1" parent="WIyWlLk6GJQsqaUBKTNV-1">
          <mxGeometry x="69.88999999999999" y="50" width="210" height="30" as="geometry" />
        </mxCell>
        <mxCell id="55BJasFtDEPykcvWfGNE-34" value="" style="edgeStyle=orthogonalEdgeStyle;rounded=0;orthogonalLoop=1;jettySize=auto;html=1;" edge="1" parent="WIyWlLk6GJQsqaUBKTNV-1" source="55BJasFtDEPykcvWfGNE-39" target="55BJasFtDEPykcvWfGNE-33">
          <mxGeometry relative="1" as="geometry" />
        </mxCell>
        <mxCell id="55BJasFtDEPykcvWfGNE-29" value="setup pinMode condition&lt;div&gt;and turn on the green light&lt;/div&gt;&lt;div&gt;and turn on the red-ped light&lt;/div&gt;" style="whiteSpace=wrap;html=1;strokeWidth=2;" vertex="1" parent="WIyWlLk6GJQsqaUBKTNV-1">
          <mxGeometry x="92.38999999999999" y="250" width="165" height="60" as="geometry" />
        </mxCell>
        <mxCell id="55BJasFtDEPykcvWfGNE-38" value="" style="edgeStyle=orthogonalEdgeStyle;rounded=0;orthogonalLoop=1;jettySize=auto;html=1;" edge="1" parent="WIyWlLk6GJQsqaUBKTNV-1" source="55BJasFtDEPykcvWfGNE-33" target="55BJasFtDEPykcvWfGNE-37">
          <mxGeometry relative="1" as="geometry" />
        </mxCell>
        <mxCell id="55BJasFtDEPykcvWfGNE-33" value="Pressed button" style="shape=parallelogram;perimeter=parallelogramPerimeter;whiteSpace=wrap;html=1;fixedSize=1;strokeWidth=2;" vertex="1" parent="WIyWlLk6GJQsqaUBKTNV-1">
          <mxGeometry x="114.88999999999999" y="380" width="120" height="60" as="geometry" />
        </mxCell>
        <mxCell id="55BJasFtDEPykcvWfGNE-49" value="" style="edgeStyle=orthogonalEdgeStyle;rounded=0;orthogonalLoop=1;jettySize=auto;html=1;" edge="1" parent="WIyWlLk6GJQsqaUBKTNV-1" source="55BJasFtDEPykcvWfGNE-37" target="55BJasFtDEPykcvWfGNE-48">
          <mxGeometry relative="1" as="geometry" />
        </mxCell>
        <mxCell id="55BJasFtDEPykcvWfGNE-37" value="&lt;font style=&quot;font-size: 11px;&quot;&gt;Is the button pressing&lt;/font&gt;&lt;div style=&quot;font-size: 11px;&quot;&gt;&lt;font style=&quot;font-size: 11px;&quot;&gt;&amp;nbsp;for more than 5 seconds&lt;/font&gt;&lt;/div&gt;&lt;div style=&quot;font-size: 11px;&quot;&gt;&lt;font style=&quot;font-size: 11px;&quot;&gt;and it pass the lastest&amp;nbsp;&lt;/font&gt;&lt;/div&gt;&lt;div style=&quot;font-size: 11px;&quot;&gt;&lt;font style=&quot;font-size: 11px;&quot;&gt;operation&amp;nbsp;&lt;/font&gt;&lt;span style=&quot;background-color: initial;&quot;&gt;for 5 seconds&lt;/span&gt;&lt;/div&gt;" style="strokeWidth=2;html=1;shape=mxgraph.flowchart.decision;whiteSpace=wrap;" vertex="1" parent="WIyWlLk6GJQsqaUBKTNV-1">
          <mxGeometry x="79.88999999999999" y="470" width="190" height="140" as="geometry" />
        </mxCell>
        <mxCell id="55BJasFtDEPykcvWfGNE-40" value="" style="edgeStyle=orthogonalEdgeStyle;rounded=0;orthogonalLoop=1;jettySize=auto;html=1;" edge="1" parent="WIyWlLk6GJQsqaUBKTNV-1" source="55BJasFtDEPykcvWfGNE-29" target="55BJasFtDEPykcvWfGNE-39">
          <mxGeometry relative="1" as="geometry">
            <mxPoint x="174.89" y="310" as="sourcePoint" />
            <mxPoint x="174.89" y="370" as="targetPoint" />
          </mxGeometry>
        </mxCell>
        <mxCell id="55BJasFtDEPykcvWfGNE-39" value="" style="verticalLabelPosition=bottom;verticalAlign=top;html=1;shape=mxgraph.flowchart.on-page_reference;" vertex="1" parent="WIyWlLk6GJQsqaUBKTNV-1">
          <mxGeometry x="169.89" y="340" width="10" height="10" as="geometry" />
        </mxCell>
        <mxCell id="55BJasFtDEPykcvWfGNE-44" style="edgeStyle=orthogonalEdgeStyle;rounded=0;orthogonalLoop=1;jettySize=auto;html=1;entryX=0;entryY=0.5;entryDx=0;entryDy=0;entryPerimeter=0;exitX=0;exitY=0.5;exitDx=0;exitDy=0;exitPerimeter=0;" edge="1" parent="WIyWlLk6GJQsqaUBKTNV-1" source="55BJasFtDEPykcvWfGNE-37" target="55BJasFtDEPykcvWfGNE-39">
          <mxGeometry relative="1" as="geometry">
            <Array as="points">
              <mxPoint x="39.889999999999986" y="540" />
              <mxPoint x="39.889999999999986" y="345" />
            </Array>
          </mxGeometry>
        </mxCell>
        <mxCell id="55BJasFtDEPykcvWfGNE-45" value="&lt;font style=&quot;font-size: 14px;&quot;&gt;No&lt;/font&gt;" style="edgeLabel;html=1;align=center;verticalAlign=middle;resizable=0;points=[];" vertex="1" connectable="0" parent="55BJasFtDEPykcvWfGNE-44">
          <mxGeometry x="-0.7888" y="4" relative="1" as="geometry">
            <mxPoint x="18" y="-24" as="offset" />
          </mxGeometry>
        </mxCell>
        <mxCell id="55BJasFtDEPykcvWfGNE-48" value="changeLights" style="shape=process;whiteSpace=wrap;html=1;backgroundOutline=1;strokeWidth=2;" vertex="1" parent="WIyWlLk6GJQsqaUBKTNV-1">
          <mxGeometry x="114.88999999999999" y="650" width="120" height="60" as="geometry" />
        </mxCell>
        <mxCell id="55BJasFtDEPykcvWfGNE-50" style="edgeStyle=orthogonalEdgeStyle;rounded=0;orthogonalLoop=1;jettySize=auto;html=1;entryX=1;entryY=0.5;entryDx=0;entryDy=0;entryPerimeter=0;" edge="1" parent="WIyWlLk6GJQsqaUBKTNV-1" source="55BJasFtDEPykcvWfGNE-48" target="55BJasFtDEPykcvWfGNE-39">
          <mxGeometry relative="1" as="geometry">
            <Array as="points">
              <mxPoint x="175" y="620" />
              <mxPoint x="310" y="620" />
              <mxPoint x="310" y="345" />
            </Array>
          </mxGeometry>
        </mxCell>
        <mxCell id="55BJasFtDEPykcvWfGNE-51" value="&lt;font style=&quot;font-size: 14px;&quot;&gt;Yes&lt;/font&gt;" style="edgeLabel;html=1;align=center;verticalAlign=middle;resizable=0;points=[];" vertex="1" connectable="0" parent="55BJasFtDEPykcvWfGNE-50">
          <mxGeometry x="-0.7831" y="2" relative="1" as="geometry">
            <mxPoint x="40" y="-18" as="offset" />
          </mxGeometry>
        </mxCell>
        <mxCell id="55BJasFtDEPykcvWfGNE-54" value="STOP" style="strokeWidth=2;html=1;shape=mxgraph.flowchart.start_1;whiteSpace=wrap;" vertex="1" parent="WIyWlLk6GJQsqaUBKTNV-1">
          <mxGeometry x="124.88999999999999" y="740" width="100" height="60" as="geometry" />
        </mxCell>
        <mxCell id="55BJasFtDEPykcvWfGNE-55" style="edgeStyle=orthogonalEdgeStyle;rounded=0;orthogonalLoop=1;jettySize=auto;html=1;entryX=0.5;entryY=0;entryDx=0;entryDy=0;entryPerimeter=0;" edge="1" parent="WIyWlLk6GJQsqaUBKTNV-1" source="55BJasFtDEPykcvWfGNE-48" target="55BJasFtDEPykcvWfGNE-54">
          <mxGeometry relative="1" as="geometry" />
        </mxCell>
        <mxCell id="55BJasFtDEPykcvWfGNE-60" value="" style="edgeStyle=orthogonalEdgeStyle;rounded=0;orthogonalLoop=1;jettySize=auto;html=1;" edge="1" parent="WIyWlLk6GJQsqaUBKTNV-1" source="55BJasFtDEPykcvWfGNE-56" target="55BJasFtDEPykcvWfGNE-59">
          <mxGeometry relative="1" as="geometry" />
        </mxCell>
        <mxCell id="55BJasFtDEPykcvWfGNE-56" value="START" style="strokeWidth=2;html=1;shape=mxgraph.flowchart.start_1;whiteSpace=wrap;" vertex="1" parent="WIyWlLk6GJQsqaUBKTNV-1">
          <mxGeometry x="480.11" y="55" width="100" height="60" as="geometry" />
        </mxCell>
        <mxCell id="55BJasFtDEPykcvWfGNE-57" value="" style="endArrow=none;dashed=1;html=1;dashPattern=1 3;strokeWidth=2;rounded=0;exitX=1;exitY=0.5;exitDx=0;exitDy=0;entryX=0;entryY=0.5;entryDx=0;entryDy=0;entryPerimeter=0;" edge="1" parent="WIyWlLk6GJQsqaUBKTNV-1" source="55BJasFtDEPykcvWfGNE-48" target="55BJasFtDEPykcvWfGNE-56">
          <mxGeometry width="50" height="50" relative="1" as="geometry">
            <mxPoint x="170" y="170" as="sourcePoint" />
            <mxPoint x="220" y="120" as="targetPoint" />
            <Array as="points">
              <mxPoint x="340" y="640" />
              <mxPoint x="400" y="120" />
            </Array>
          </mxGeometry>
        </mxCell>
        <mxCell id="55BJasFtDEPykcvWfGNE-58" value="changeLights" style="text;html=1;align=center;verticalAlign=middle;resizable=0;points=[];autosize=1;strokeColor=none;fillColor=none;" vertex="1" parent="WIyWlLk6GJQsqaUBKTNV-1">
          <mxGeometry x="485.11" y="15" width="90" height="30" as="geometry" />
        </mxCell>
        <mxCell id="55BJasFtDEPykcvWfGNE-66" value="" style="edgeStyle=orthogonalEdgeStyle;rounded=0;orthogonalLoop=1;jettySize=auto;html=1;" edge="1" parent="WIyWlLk6GJQsqaUBKTNV-1" source="55BJasFtDEPykcvWfGNE-59" target="55BJasFtDEPykcvWfGNE-63">
          <mxGeometry relative="1" as="geometry" />
        </mxCell>
        <mxCell id="55BJasFtDEPykcvWfGNE-59" value="turn off green light&lt;div&gt;turn on yellow light&lt;/div&gt;" style="whiteSpace=wrap;html=1;strokeWidth=2;" vertex="1" parent="WIyWlLk6GJQsqaUBKTNV-1">
          <mxGeometry x="470.11" y="145" width="120" height="40" as="geometry" />
        </mxCell>
        <mxCell id="55BJasFtDEPykcvWfGNE-63" value="2 seconds" style="strokeWidth=2;html=1;shape=mxgraph.flowchart.delay;whiteSpace=wrap;" vertex="1" parent="WIyWlLk6GJQsqaUBKTNV-1">
          <mxGeometry x="480.11" y="205" width="100" height="30" as="geometry" />
        </mxCell>
        <mxCell id="55BJasFtDEPykcvWfGNE-67" value="" style="edgeStyle=orthogonalEdgeStyle;rounded=0;orthogonalLoop=1;jettySize=auto;html=1;exitX=0.5;exitY=1;exitDx=0;exitDy=0;exitPerimeter=0;" edge="1" parent="WIyWlLk6GJQsqaUBKTNV-1" target="55BJasFtDEPykcvWfGNE-69" source="55BJasFtDEPykcvWfGNE-63">
          <mxGeometry relative="1" as="geometry">
            <mxPoint x="500.11" y="315" as="sourcePoint" />
          </mxGeometry>
        </mxCell>
        <mxCell id="55BJasFtDEPykcvWfGNE-68" value="" style="edgeStyle=orthogonalEdgeStyle;rounded=0;orthogonalLoop=1;jettySize=auto;html=1;" edge="1" parent="WIyWlLk6GJQsqaUBKTNV-1" source="55BJasFtDEPykcvWfGNE-69" target="55BJasFtDEPykcvWfGNE-70">
          <mxGeometry relative="1" as="geometry" />
        </mxCell>
        <mxCell id="55BJasFtDEPykcvWfGNE-69" value="turn off yellow light&lt;div&gt;turn on red light&lt;/div&gt;" style="whiteSpace=wrap;html=1;strokeWidth=2;" vertex="1" parent="WIyWlLk6GJQsqaUBKTNV-1">
          <mxGeometry x="470.11" y="255" width="120" height="40" as="geometry" />
        </mxCell>
        <mxCell id="55BJasFtDEPykcvWfGNE-70" value="1 second" style="strokeWidth=2;html=1;shape=mxgraph.flowchart.delay;whiteSpace=wrap;" vertex="1" parent="WIyWlLk6GJQsqaUBKTNV-1">
          <mxGeometry x="480.11" y="315" width="100" height="30" as="geometry" />
        </mxCell>
        <mxCell id="55BJasFtDEPykcvWfGNE-71" value="" style="edgeStyle=orthogonalEdgeStyle;rounded=0;orthogonalLoop=1;jettySize=auto;html=1;exitX=0.5;exitY=1;exitDx=0;exitDy=0;exitPerimeter=0;" edge="1" parent="WIyWlLk6GJQsqaUBKTNV-1" target="55BJasFtDEPykcvWfGNE-73" source="55BJasFtDEPykcvWfGNE-70">
          <mxGeometry relative="1" as="geometry">
            <mxPoint x="530.11" y="475" as="sourcePoint" />
          </mxGeometry>
        </mxCell>
        <mxCell id="55BJasFtDEPykcvWfGNE-72" value="" style="edgeStyle=orthogonalEdgeStyle;rounded=0;orthogonalLoop=1;jettySize=auto;html=1;" edge="1" parent="WIyWlLk6GJQsqaUBKTNV-1" source="55BJasFtDEPykcvWfGNE-73" target="55BJasFtDEPykcvWfGNE-74">
          <mxGeometry relative="1" as="geometry" />
        </mxCell>
        <mxCell id="55BJasFtDEPykcvWfGNE-73" value="turn off red-ped light&lt;div&gt;turn on green-ped light&lt;/div&gt;" style="whiteSpace=wrap;html=1;strokeWidth=2;" vertex="1" parent="WIyWlLk6GJQsqaUBKTNV-1">
          <mxGeometry x="460.11" y="365" width="140" height="40" as="geometry" />
        </mxCell>
        <mxCell id="55BJasFtDEPykcvWfGNE-74" value="crossTime" style="strokeWidth=2;html=1;shape=mxgraph.flowchart.delay;whiteSpace=wrap;" vertex="1" parent="WIyWlLk6GJQsqaUBKTNV-1">
          <mxGeometry x="480.11" y="425" width="100" height="30" as="geometry" />
        </mxCell>
        <mxCell id="55BJasFtDEPykcvWfGNE-75" value="" style="edgeStyle=orthogonalEdgeStyle;rounded=0;orthogonalLoop=1;jettySize=auto;html=1;" edge="1" parent="WIyWlLk6GJQsqaUBKTNV-1" target="55BJasFtDEPykcvWfGNE-77" source="55BJasFtDEPykcvWfGNE-74">
          <mxGeometry relative="1" as="geometry">
            <mxPoint x="530.11" y="615" as="sourcePoint" />
          </mxGeometry>
        </mxCell>
        <mxCell id="55BJasFtDEPykcvWfGNE-76" value="" style="edgeStyle=orthogonalEdgeStyle;rounded=0;orthogonalLoop=1;jettySize=auto;html=1;exitX=0.5;exitY=1;exitDx=0;exitDy=0;" edge="1" parent="WIyWlLk6GJQsqaUBKTNV-1" source="55BJasFtDEPykcvWfGNE-84" target="55BJasFtDEPykcvWfGNE-78">
          <mxGeometry relative="1" as="geometry">
            <mxPoint x="530.0665217391307" y="775" as="sourcePoint" />
          </mxGeometry>
        </mxCell>
        <mxCell id="55BJasFtDEPykcvWfGNE-77" value="x = 0" style="whiteSpace=wrap;html=1;strokeWidth=2;" vertex="1" parent="WIyWlLk6GJQsqaUBKTNV-1">
          <mxGeometry x="460.11" y="475" width="140" height="30" as="geometry" />
        </mxCell>
        <mxCell id="55BJasFtDEPykcvWfGNE-78" value="250 milliseconds" style="strokeWidth=2;html=1;shape=mxgraph.flowchart.delay;whiteSpace=wrap;" vertex="1" parent="WIyWlLk6GJQsqaUBKTNV-1">
          <mxGeometry x="480.11" y="575" width="100" height="20" as="geometry" />
        </mxCell>
        <mxCell id="55BJasFtDEPykcvWfGNE-83" value="" style="edgeStyle=orthogonalEdgeStyle;rounded=0;orthogonalLoop=1;jettySize=auto;html=1;exitX=0.5;exitY=1;exitDx=0;exitDy=0;" edge="1" parent="WIyWlLk6GJQsqaUBKTNV-1" target="55BJasFtDEPykcvWfGNE-84" source="55BJasFtDEPykcvWfGNE-77">
          <mxGeometry relative="1" as="geometry">
            <mxPoint x="530.11" y="685" as="sourcePoint" />
          </mxGeometry>
        </mxCell>
        <mxCell id="55BJasFtDEPykcvWfGNE-84" value="turn on green-ped light" style="whiteSpace=wrap;html=1;strokeWidth=2;" vertex="1" parent="WIyWlLk6GJQsqaUBKTNV-1">
          <mxGeometry x="465.11" y="535" width="130" height="20" as="geometry" />
        </mxCell>
        <mxCell id="55BJasFtDEPykcvWfGNE-86" value="" style="edgeStyle=orthogonalEdgeStyle;rounded=0;orthogonalLoop=1;jettySize=auto;html=1;exitX=0.5;exitY=1;exitDx=0;exitDy=0;" edge="1" parent="WIyWlLk6GJQsqaUBKTNV-1" source="55BJasFtDEPykcvWfGNE-89" target="55BJasFtDEPykcvWfGNE-87">
          <mxGeometry relative="1" as="geometry">
            <mxPoint x="530.0665217391307" y="855" as="sourcePoint" />
          </mxGeometry>
        </mxCell>
        <mxCell id="55BJasFtDEPykcvWfGNE-90" style="edgeStyle=orthogonalEdgeStyle;rounded=0;orthogonalLoop=1;jettySize=auto;html=1;exitX=0.5;exitY=0;exitDx=0;exitDy=0;" edge="1" parent="WIyWlLk6GJQsqaUBKTNV-1" source="55BJasFtDEPykcvWfGNE-92">
          <mxGeometry relative="1" as="geometry">
            <mxPoint x="530.11" y="515" as="targetPoint" />
            <Array as="points">
              <mxPoint x="430.11" y="515" />
            </Array>
          </mxGeometry>
        </mxCell>
        <mxCell id="55BJasFtDEPykcvWfGNE-94" value="" style="edgeStyle=orthogonalEdgeStyle;rounded=0;orthogonalLoop=1;jettySize=auto;html=1;entryX=0.5;entryY=0;entryDx=0;entryDy=0;entryPerimeter=0;" edge="1" parent="WIyWlLk6GJQsqaUBKTNV-1" source="55BJasFtDEPykcvWfGNE-87" target="55BJasFtDEPykcvWfGNE-95">
          <mxGeometry relative="1" as="geometry">
            <mxPoint x="530.11" y="735" as="targetPoint" />
          </mxGeometry>
        </mxCell>
        <mxCell id="55BJasFtDEPykcvWfGNE-87" value="250 milliseconds" style="strokeWidth=2;html=1;shape=mxgraph.flowchart.delay;whiteSpace=wrap;" vertex="1" parent="WIyWlLk6GJQsqaUBKTNV-1">
          <mxGeometry x="480.11" y="655" width="100" height="20" as="geometry" />
        </mxCell>
        <mxCell id="55BJasFtDEPykcvWfGNE-88" value="" style="edgeStyle=orthogonalEdgeStyle;rounded=0;orthogonalLoop=1;jettySize=auto;html=1;exitX=0.5;exitY=1;exitDx=0;exitDy=0;exitPerimeter=0;" edge="1" parent="WIyWlLk6GJQsqaUBKTNV-1" target="55BJasFtDEPykcvWfGNE-89" source="55BJasFtDEPykcvWfGNE-78">
          <mxGeometry relative="1" as="geometry">
            <mxPoint x="530.11" y="605" as="sourcePoint" />
          </mxGeometry>
        </mxCell>
        <mxCell id="55BJasFtDEPykcvWfGNE-89" value="turn off green-ped light" style="whiteSpace=wrap;html=1;strokeWidth=2;" vertex="1" parent="WIyWlLk6GJQsqaUBKTNV-1">
          <mxGeometry x="465.11" y="615" width="130" height="20" as="geometry" />
        </mxCell>
        <mxCell id="55BJasFtDEPykcvWfGNE-92" value="x = x + 1" style="whiteSpace=wrap;html=1;strokeWidth=2;" vertex="1" parent="WIyWlLk6GJQsqaUBKTNV-1">
          <mxGeometry x="400" y="710" width="60.11" height="20" as="geometry" />
        </mxCell>
        <mxCell id="55BJasFtDEPykcvWfGNE-96" value="" style="edgeStyle=orthogonalEdgeStyle;rounded=0;orthogonalLoop=1;jettySize=auto;html=1;" edge="1" parent="WIyWlLk6GJQsqaUBKTNV-1" source="55BJasFtDEPykcvWfGNE-95" target="55BJasFtDEPykcvWfGNE-92">
          <mxGeometry relative="1" as="geometry" />
        </mxCell>
        <mxCell id="55BJasFtDEPykcvWfGNE-95" value="x &amp;lt; 10" style="strokeWidth=2;html=1;shape=mxgraph.flowchart.decision;whiteSpace=wrap;" vertex="1" parent="WIyWlLk6GJQsqaUBKTNV-1">
          <mxGeometry x="490.11" y="695" width="80" height="50" as="geometry" />
        </mxCell>
        <mxCell id="55BJasFtDEPykcvWfGNE-98" value="&lt;font style=&quot;font-size: 14px;&quot;&gt;Yes&lt;/font&gt;" style="edgeLabel;html=1;align=center;verticalAlign=middle;resizable=0;points=[];" vertex="1" connectable="0" parent="WIyWlLk6GJQsqaUBKTNV-1">
          <mxGeometry x="209.9952050544581" y="519.9956956233484" as="geometry">
            <mxPoint x="267" y="181" as="offset" />
          </mxGeometry>
        </mxCell>
        <mxCell id="55BJasFtDEPykcvWfGNE-99" value="&lt;font style=&quot;font-size: 14px;&quot;&gt;No&lt;/font&gt;" style="edgeLabel;html=1;align=center;verticalAlign=middle;resizable=0;points=[];" vertex="1" connectable="0" parent="WIyWlLk6GJQsqaUBKTNV-1">
          <mxGeometry x="820.0044444444445" y="659.997037037037" as="geometry">
            <mxPoint x="-264" y="95" as="offset" />
          </mxGeometry>
        </mxCell>
        <mxCell id="55BJasFtDEPykcvWfGNE-100" value="" style="edgeStyle=orthogonalEdgeStyle;rounded=0;orthogonalLoop=1;jettySize=auto;html=1;exitX=0.5;exitY=1;exitDx=0;exitDy=0;exitPerimeter=0;" edge="1" parent="WIyWlLk6GJQsqaUBKTNV-1" target="55BJasFtDEPykcvWfGNE-101" source="55BJasFtDEPykcvWfGNE-95">
          <mxGeometry relative="1" as="geometry">
            <mxPoint x="530.11" y="775" as="sourcePoint" />
          </mxGeometry>
        </mxCell>
        <mxCell id="55BJasFtDEPykcvWfGNE-103" value="" style="edgeStyle=orthogonalEdgeStyle;rounded=0;orthogonalLoop=1;jettySize=auto;html=1;" edge="1" parent="WIyWlLk6GJQsqaUBKTNV-1" source="55BJasFtDEPykcvWfGNE-101" target="55BJasFtDEPykcvWfGNE-102">
          <mxGeometry relative="1" as="geometry" />
        </mxCell>
        <mxCell id="55BJasFtDEPykcvWfGNE-101" value="turn on red-ped light" style="whiteSpace=wrap;html=1;strokeWidth=2;" vertex="1" parent="WIyWlLk6GJQsqaUBKTNV-1">
          <mxGeometry x="470.11" y="775" width="120" height="20" as="geometry" />
        </mxCell>
        <mxCell id="55BJasFtDEPykcvWfGNE-102" value="500 milliseconds" style="strokeWidth=2;html=1;shape=mxgraph.flowchart.delay;whiteSpace=wrap;" vertex="1" parent="WIyWlLk6GJQsqaUBKTNV-1">
          <mxGeometry x="480.11" y="815" width="100" height="20" as="geometry" />
        </mxCell>
        <mxCell id="55BJasFtDEPykcvWfGNE-104" value="" style="edgeStyle=orthogonalEdgeStyle;rounded=0;orthogonalLoop=1;jettySize=auto;html=1;exitX=0.5;exitY=1;exitDx=0;exitDy=0;exitPerimeter=0;" edge="1" parent="WIyWlLk6GJQsqaUBKTNV-1" target="55BJasFtDEPykcvWfGNE-106" source="55BJasFtDEPykcvWfGNE-102">
          <mxGeometry relative="1" as="geometry">
            <mxPoint x="530.11" y="845" as="sourcePoint" />
          </mxGeometry>
        </mxCell>
        <mxCell id="55BJasFtDEPykcvWfGNE-105" value="" style="edgeStyle=orthogonalEdgeStyle;rounded=0;orthogonalLoop=1;jettySize=auto;html=1;" edge="1" parent="WIyWlLk6GJQsqaUBKTNV-1" source="55BJasFtDEPykcvWfGNE-106" target="55BJasFtDEPykcvWfGNE-107">
          <mxGeometry relative="1" as="geometry" />
        </mxCell>
        <mxCell id="55BJasFtDEPykcvWfGNE-106" value="turn on yellow-car light&lt;div&gt;turn off red-car light&lt;/div&gt;" style="whiteSpace=wrap;html=1;strokeWidth=2;" vertex="1" parent="WIyWlLk6GJQsqaUBKTNV-1">
          <mxGeometry x="465.11" y="855" width="130" height="40" as="geometry" />
        </mxCell>
        <mxCell id="55BJasFtDEPykcvWfGNE-107" value="1 second" style="strokeWidth=2;html=1;shape=mxgraph.flowchart.delay;whiteSpace=wrap;" vertex="1" parent="WIyWlLk6GJQsqaUBKTNV-1">
          <mxGeometry x="480.11" y="915" width="100" height="30" as="geometry" />
        </mxCell>
        <mxCell id="55BJasFtDEPykcvWfGNE-108" value="" style="edgeStyle=orthogonalEdgeStyle;rounded=0;orthogonalLoop=1;jettySize=auto;html=1;exitX=0.5;exitY=1;exitDx=0;exitDy=0;exitPerimeter=0;" edge="1" parent="WIyWlLk6GJQsqaUBKTNV-1" target="55BJasFtDEPykcvWfGNE-110" source="55BJasFtDEPykcvWfGNE-107">
          <mxGeometry relative="1" as="geometry">
            <mxPoint x="525" y="975" as="sourcePoint" />
          </mxGeometry>
        </mxCell>
        <mxCell id="55BJasFtDEPykcvWfGNE-113" value="" style="edgeStyle=orthogonalEdgeStyle;rounded=0;orthogonalLoop=1;jettySize=auto;html=1;" edge="1" parent="WIyWlLk6GJQsqaUBKTNV-1" source="55BJasFtDEPykcvWfGNE-110" target="55BJasFtDEPykcvWfGNE-112">
          <mxGeometry relative="1" as="geometry" />
        </mxCell>
        <mxCell id="55BJasFtDEPykcvWfGNE-110" value="turn on green-car light&lt;div&gt;turn off yellow-car light&lt;/div&gt;" style="whiteSpace=wrap;html=1;strokeWidth=2;" vertex="1" parent="WIyWlLk6GJQsqaUBKTNV-1">
          <mxGeometry x="465.11" y="965" width="130" height="40" as="geometry" />
        </mxCell>
        <mxCell id="55BJasFtDEPykcvWfGNE-115" value="" style="edgeStyle=orthogonalEdgeStyle;rounded=0;orthogonalLoop=1;jettySize=auto;html=1;" edge="1" parent="WIyWlLk6GJQsqaUBKTNV-1" source="55BJasFtDEPykcvWfGNE-112" target="55BJasFtDEPykcvWfGNE-114">
          <mxGeometry relative="1" as="geometry" />
        </mxCell>
        <mxCell id="55BJasFtDEPykcvWfGNE-112" value="changeTime = millis()" style="whiteSpace=wrap;html=1;strokeWidth=2;" vertex="1" parent="WIyWlLk6GJQsqaUBKTNV-1">
          <mxGeometry x="465.11" y="1025" width="130.11" height="40" as="geometry" />
        </mxCell>
        <mxCell id="55BJasFtDEPykcvWfGNE-114" value="STOP" style="strokeWidth=2;html=1;shape=mxgraph.flowchart.start_1;whiteSpace=wrap;" vertex="1" parent="WIyWlLk6GJQsqaUBKTNV-1">
          <mxGeometry x="480.11" y="1090" width="100" height="60" as="geometry" />
        </mxCell>
      </root>
    </mxGraphModel>
  </diagram>
</mxfile>
